<svg width="100" height="100" viewBox="0 0 100 100" fill="none" xmlns="http://www.w3.org/2000/svg">
<path d="M99.8907 53.3333H98.8333V60.7874C99.3663 58.3639 99.7234 55.8745 99.8907 53.3333Z" fill="#DB4437"/>
<path fill-rule="evenodd" clip-rule="evenodd" d="M98.8047 60.9166C93.8243 83.2808 73.8646 100 50 100C22.3858 100 0 77.6142 0 50C0 22.3858 22.3858 0 50 0C73.5374 0 93.2762 16.2638 98.5914 38.1666H91.25V45.7499H83.6667V53.3333H91.25V60.9166H98.8047ZM49.5417 54.8499V45.7499H74.5667C74.9458 47.2666 74.9458 48.4041 74.9458 50.2999C74.9458 65.4666 64.7083 76.0833 49.5417 76.0833C34.7542 76.0833 23 64.3291 23 49.5416C23 34.7541 34.7542 22.9999 49.5417 22.9999C56.7458 22.9999 62.8125 25.6541 67.3625 30.2041L60.1583 37.0291C58.2625 35.1333 54.85 32.8583 49.5417 32.8583C40.4417 32.8583 33.2375 40.4416 33.2375 49.5416C33.2375 58.6416 40.4417 66.2249 49.5417 66.2249C60.1583 66.2249 63.95 58.6416 64.7083 54.8499H49.5417Z" fill="#DB4437"/>
<path d="M98.8333 39.2126C99.302 41.3439 99.6347 43.5262 99.8219 45.7499H98.8333V39.2126Z" fill="#DB4437"/>
</svg>
