<svg width="100" height="100" viewBox="0 0 100 100" fill="none" xmlns="http://www.w3.org/2000/svg">
<path d="M100 50C100 77.6142 77.6142 100 50 100C22.3858 100 0 77.6142 0 50C0 22.3858 22.3858 0 50 0C77.6142 0 100 22.3858 100 50Z" fill="#0A66C2"/>
<path d="M34.1228 30.558C34.122 32.0314 33.5354 33.4441 32.4919 34.4854C31.4484 35.5267 30.0336 36.1112 28.5586 36.1105C27.0836 36.1098 25.6694 35.5238 24.6269 34.4814C23.5845 33.4391 22.9993 32.0258 23 30.5525C23.0007 29.0791 23.5874 27.6664 24.6309 26.6251C25.6743 25.5838 27.0892 24.9993 28.5642 25C30.0391 25.0007 31.4534 25.5867 32.4958 26.6291C33.5383 27.6714 34.1235 29.0847 34.1228 30.558ZM34.2896 40.2242H23.1668V75H34.2896V40.2242ZM51.8636 40.2242H40.7964V75H51.7524V56.751C51.7524 46.5849 65.0163 45.6405 65.0163 56.751V75H76V52.9734C76 35.8355 56.3683 36.4744 51.7524 44.8906L51.8636 40.2242Z" fill="white"/>
</svg>
