<svg width="102" height="61" viewBox="0 0 102 61" fill="none" xmlns="http://www.w3.org/2000/svg">
<line x1="1.25725" y1="0.571254" x2="101.257" y2="60.5713" stroke="black"/>
<line x1="0.742752" y1="60.5713" x2="100.743" y2="0.571255" stroke="black"/>
<rect x="14" y="16" width="74" height="29" fill="white"/>
<path d="M17.1388 21.125V38.3919H26.26V40H15.2671V21.125H17.1388ZM36.8978 20.7032C39.7097 20.7032 41.9241 21.7225 43.5409 23.7611C44.9469 25.5537 45.6499 27.8209 45.6499 30.5625C45.6499 33.7259 44.7448 36.2215 42.9346 38.0492C41.3529 39.6309 39.3406 40.4218 36.8978 40.4218C34.1034 40.4218 31.8978 39.4025 30.281 37.3638C28.875 35.5888 28.172 33.3217 28.172 30.5625C28.172 27.3991 29.0771 24.9035 30.8873 23.0757C32.469 21.494 34.4725 20.7032 36.8978 20.7032ZM36.8978 22.3112C34.7713 22.3112 33.0577 23.1285 31.7572 24.7629C30.6149 26.204 30.0437 28.1372 30.0437 30.5625C30.0437 33.2162 30.7555 35.3076 32.179 36.8366C33.4092 38.1547 34.9909 38.8137 36.9241 38.8137C39.121 38.8137 40.852 37.9614 42.1174 36.2566C43.2246 34.7804 43.7782 32.8823 43.7782 30.5625C43.7782 28.1723 43.207 26.2391 42.0647 24.7629C40.7993 23.1285 39.077 22.3112 36.8978 22.3112ZM57.2066 30.3779H65.1679V40H63.6653V36.8629C62.0133 39.2355 59.8428 40.4218 57.1539 40.4218C54.3947 40.4218 52.2331 39.4113 50.6689 37.3902C49.2981 35.6327 48.6127 33.3744 48.6127 30.6152C48.6127 27.3991 49.5266 24.8859 51.3543 23.0757C52.936 21.494 54.9659 20.7032 57.4439 20.7032C59.6407 20.7032 61.4245 21.3007 62.7953 22.4958C63.9728 23.5502 64.7022 24.9562 64.9834 26.7137H63.1644C62.8481 25.3077 62.189 24.2269 61.1873 23.4712C60.2031 22.6979 58.9641 22.3112 57.4703 22.3112C55.2207 22.3112 53.4545 23.1548 52.1715 24.842C51.0468 26.3182 50.4844 28.2075 50.4844 30.5098C50.4844 33.1635 51.1962 35.2637 52.6197 36.8102C53.8499 38.1459 55.3965 38.8137 57.2594 38.8137C58.4017 38.8137 59.4386 38.5501 60.3701 38.0229C61.3191 37.4781 62.0484 36.7487 62.5581 35.8348C63.1205 34.7804 63.4456 33.4623 63.5335 31.8806H57.2066V30.3779ZM77.3672 20.7032C80.1792 20.7032 82.3936 21.7225 84.0104 23.7611C85.4164 25.5537 86.1193 27.8209 86.1193 30.5625C86.1193 33.7259 85.2143 36.2215 83.4041 38.0492C81.8224 39.6309 79.8101 40.4218 77.3672 40.4218C74.5729 40.4218 72.3673 39.4025 70.7504 37.3638C69.3445 35.5888 68.6415 33.3217 68.6415 30.5625C68.6415 27.3991 69.5466 24.9035 71.3567 23.0757C72.9385 21.494 74.942 20.7032 77.3672 20.7032ZM77.3672 22.3112C75.2407 22.3112 73.5272 23.1285 72.2267 24.7629C71.0843 26.204 70.5132 28.1372 70.5132 30.5625C70.5132 33.2162 71.2249 35.3076 72.6485 36.8366C73.8787 38.1547 75.4604 38.8137 77.3936 38.8137C79.5904 38.8137 81.3215 37.9614 82.5869 36.2566C83.6941 34.7804 84.2477 32.8823 84.2477 30.5625C84.2477 28.1723 83.6765 26.2391 82.5341 24.7629C81.2688 23.1285 79.5465 22.3112 77.3672 22.3112Z" fill="black"/>
<rect x="1.5" y="1.5" width="99" height="59" stroke="black"/>
</svg>
