<svg width="100" height="100" viewBox="0 0 100 100" fill="none" xmlns="http://www.w3.org/2000/svg">
<circle cx="50" cy="50" r="50" fill="#86C660"/>
<path fill-rule="evenodd" clip-rule="evenodd" d="M63.1477 98.2534C84.3837 92.4808 100 73.0641 100 50C100 45.695 99.4559 41.5171 98.4328 37.5312L77.5 20L41 78.5L63.1477 98.2534Z" fill="#6F9A55" fill-opacity="0.4"/>
<path d="M76.973 19.0108C78.7949 20.0382 80.1369 21.752 80.704 23.7755C81.2711 25.799 81.0168 27.9664 79.997 29.8011L54.0994 76.3647C53.4435 77.5444 52.5338 78.5613 51.4369 79.341C50.34 80.1207 49.0838 80.6434 47.7602 80.8708C46.4366 81.0983 45.0793 81.0246 43.7877 80.6554C42.4961 80.2861 41.3029 79.6305 40.2955 78.7367L20.6687 61.3291C19.1016 59.9388 18.1473 57.9786 18.0157 55.8799C17.884 53.7811 18.5858 51.7156 19.9667 50.1379C21.3475 48.5601 23.2943 47.5992 25.3788 47.4667C27.4633 47.3341 29.5147 48.0407 31.0817 49.431L44.4378 61.2792L66.2539 22.0556C66.7592 21.147 67.4372 20.3475 68.2493 19.7027C69.0614 19.058 69.9918 18.5806 70.9871 18.2979C71.9825 18.0151 73.0234 17.9326 74.0505 18.0549C75.0775 18.1772 76.0706 18.5021 76.973 19.0108Z" fill="white"/>
</svg>
