<svg width="100" height="100" viewBox="0 0 100 100" fill="none" xmlns="http://www.w3.org/2000/svg">
<path d="M50 0C22.3854 0 0 22.3854 0 50C0 77.6146 22.3854 100 50 100C77.6146 100 100 77.6146 100 50C100 22.3854 77.6146 0 50 0ZM70.3385 40.9583C70.3594 41.3854 70.3646 41.8125 70.3646 42.2292C70.3646 55.25 60.4635 70.2552 42.349 70.2552C36.9963 70.2641 31.755 68.7268 27.2552 65.8281C28.0208 65.9219 28.8073 65.9583 29.6042 65.9583C34.2187 65.9583 38.4635 64.3906 41.8333 61.7448C39.7798 61.7045 37.79 61.0245 36.1412 59.7996C34.4925 58.5747 33.2669 56.8659 32.6354 54.9115C34.1102 55.1919 35.6294 55.1331 37.0781 54.7396C34.8492 54.2889 32.8448 53.0811 31.4047 51.3212C29.9647 49.5612 29.1776 47.3574 29.1771 45.0833V44.9635C30.5052 45.6979 32.026 46.1458 33.6406 46.1979C31.551 44.8069 30.0718 42.6702 29.5054 40.2246C28.9391 37.7791 29.3284 35.2096 30.5937 33.0417C33.0675 36.0833 36.1524 38.5716 39.6488 40.3454C43.1452 42.1191 46.9751 43.1389 50.8906 43.3385C50.3928 41.2256 50.6071 39.0073 51.5 37.0287C52.393 35.05 53.9147 33.4218 55.8285 32.3972C57.7423 31.3726 59.941 31.009 62.0828 31.3629C64.2246 31.7168 66.1894 32.7684 67.6719 34.3542C69.8759 33.9181 71.9895 33.1097 73.9219 31.9635C73.1873 34.2455 71.6493 36.1832 69.5938 37.4167C71.5461 37.1815 73.4524 36.6567 75.25 35.8594C73.9296 37.838 72.2663 39.5648 70.3385 40.9583Z" fill="#1DA1F2"/>
</svg>
